<mxfile host="Electron" agent="Mozilla/5.0 (Windows NT 10.0; Win64; x64) AppleWebKit/537.36 (KHTML, like Gecko) draw.io/28.0.6 Chrome/138.0.7204.100 Electron/37.2.3 Safari/537.36" version="28.0.6">
  <diagram name="Page-1" id="6U6kgMGbwUGoAdEP1a-D">
    <mxGraphModel dx="1833" dy="705" grid="1" gridSize="10" guides="1" tooltips="1" connect="1" arrows="1" fold="1" page="1" pageScale="1" pageWidth="850" pageHeight="1100" math="0" shadow="0">
      <root>
        <mxCell id="0" />
        <mxCell id="1" parent="0" />
        <mxCell id="NDT3R4Ue2ZUsVmPJXPDj-1" style="edgeStyle=orthogonalEdgeStyle;rounded=0;orthogonalLoop=1;jettySize=auto;html=1;fontFamily=Helvetica;fontSize=12;fontColor=default;fillColor=#b0e3e6;strokeColor=#0e8088;" parent="1" source="NDT3R4Ue2ZUsVmPJXPDj-4" target="NDT3R4Ue2ZUsVmPJXPDj-5" edge="1">
          <mxGeometry relative="1" as="geometry" />
        </mxCell>
        <mxCell id="NDT3R4Ue2ZUsVmPJXPDj-2" value="" style="rounded=0;whiteSpace=wrap;html=1;dashed=1;fillColor=none;strokeColor=#0e8088;" parent="1" vertex="1">
          <mxGeometry x="-60" y="190" width="230" height="480" as="geometry" />
        </mxCell>
        <mxCell id="NDT3R4Ue2ZUsVmPJXPDj-3" value="&lt;font style=&quot;font-size: 15px;&quot;&gt;&lt;b&gt;Silver&amp;nbsp; Layer&lt;/b&gt;&lt;/font&gt;" style="rounded=0;whiteSpace=wrap;html=1;opacity=50;fillColor=#b0e3e6;strokeColor=#0e8088;" parent="1" vertex="1">
          <mxGeometry x="10" y="170" width="110" height="45" as="geometry" />
        </mxCell>
        <mxCell id="NDT3R4Ue2ZUsVmPJXPDj-4" value="&lt;font style=&quot;font-size: 17px;&quot;&gt;&lt;b&gt;crm_sales_details&lt;/b&gt;&lt;/font&gt;" style="rounded=0;whiteSpace=wrap;html=1;fillStyle=auto;opacity=50;fillColor=#b0e3e6;strokeColor=#0e8088;" parent="1" vertex="1">
          <mxGeometry x="-45" y="260" width="205" height="30" as="geometry" />
        </mxCell>
        <mxCell id="NDT3R4Ue2ZUsVmPJXPDj-5" value="&lt;font style=&quot;font-size: 17px;&quot;&gt;&lt;b&gt;crm_customer_info&lt;/b&gt;&lt;/font&gt;" style="rounded=0;whiteSpace=wrap;html=1;fillStyle=auto;opacity=50;fillColor=#b0e3e6;strokeColor=#0e8088;" parent="1" vertex="1">
          <mxGeometry x="-45" y="296" width="205" height="30" as="geometry" />
        </mxCell>
        <mxCell id="NDT3R4Ue2ZUsVmPJXPDj-6" value="&lt;span style=&quot;font-size: 17px;&quot;&gt;&lt;b&gt;crm_product_info&lt;/b&gt;&lt;/span&gt;" style="rounded=0;whiteSpace=wrap;html=1;fillStyle=auto;opacity=50;fillColor=#b0e3e6;strokeColor=#0e8088;" parent="1" vertex="1">
          <mxGeometry x="-45" y="330" width="205" height="30" as="geometry" />
        </mxCell>
        <mxCell id="NDT3R4Ue2ZUsVmPJXPDj-7" style="edgeStyle=orthogonalEdgeStyle;rounded=0;orthogonalLoop=1;jettySize=auto;html=1;fontFamily=Helvetica;fontSize=12;fontColor=default;fillColor=#b0e3e6;strokeColor=#0e8088;" parent="1" source="NDT3R4Ue2ZUsVmPJXPDj-8" target="NDT3R4Ue2ZUsVmPJXPDj-9" edge="1">
          <mxGeometry relative="1" as="geometry" />
        </mxCell>
        <mxCell id="NDT3R4Ue2ZUsVmPJXPDj-8" value="&lt;font style=&quot;font-size: 17px;&quot;&gt;&lt;b&gt;erp_cust_az12&lt;/b&gt;&lt;/font&gt;" style="rounded=0;whiteSpace=wrap;html=1;fillStyle=auto;opacity=50;fillColor=#b0e3e6;strokeColor=#0e8088;" parent="1" vertex="1">
          <mxGeometry x="-45" y="470" width="205" height="30" as="geometry" />
        </mxCell>
        <mxCell id="NDT3R4Ue2ZUsVmPJXPDj-9" value="&lt;font style=&quot;font-size: 17px;&quot;&gt;&lt;b&gt;erp_loc_a101&lt;/b&gt;&lt;/font&gt;" style="rounded=0;whiteSpace=wrap;html=1;fillStyle=auto;opacity=50;fillColor=#b0e3e6;strokeColor=#0e8088;" parent="1" vertex="1">
          <mxGeometry x="-45" y="506" width="205" height="30" as="geometry" />
        </mxCell>
        <mxCell id="NDT3R4Ue2ZUsVmPJXPDj-10" value="&lt;span style=&quot;font-size: 17px;&quot;&gt;&lt;b&gt;erp_px_catg1v2&lt;/b&gt;&lt;/span&gt;" style="rounded=0;whiteSpace=wrap;html=1;fillStyle=auto;opacity=50;fillColor=#b0e3e6;strokeColor=#0e8088;" parent="1" vertex="1">
          <mxGeometry x="-45" y="540" width="205" height="30" as="geometry" />
        </mxCell>
        <mxCell id="Xdz14TQxOLBDT99SR0KR-6" value="" style="rounded=0;whiteSpace=wrap;html=1;fillColor=none;dashed=1;" parent="1" vertex="1">
          <mxGeometry x="-560" y="190" width="160" height="480" as="geometry" />
        </mxCell>
        <mxCell id="Xdz14TQxOLBDT99SR0KR-7" value="&lt;font style=&quot;font-size: 15px;&quot;&gt;&lt;b&gt;Sources&lt;/b&gt;&lt;/font&gt;" style="rounded=0;whiteSpace=wrap;html=1;strokeColor=#b85450;fillColor=#f8cecc;gradientColor=#ea6b66;opacity=50;" parent="1" vertex="1">
          <mxGeometry x="-525" y="170" width="90" height="30" as="geometry" />
        </mxCell>
        <mxCell id="Xdz14TQxOLBDT99SR0KR-16" style="edgeStyle=orthogonalEdgeStyle;rounded=0;orthogonalLoop=1;jettySize=auto;html=1;fontFamily=Helvetica;fontSize=12;fontColor=default;" parent="1" source="Xdz14TQxOLBDT99SR0KR-12" target="Xdz14TQxOLBDT99SR0KR-13" edge="1">
          <mxGeometry relative="1" as="geometry" />
        </mxCell>
        <mxCell id="Xdz14TQxOLBDT99SR0KR-17" style="edgeStyle=orthogonalEdgeStyle;rounded=0;orthogonalLoop=1;jettySize=auto;html=1;fontFamily=Helvetica;fontSize=12;fontColor=default;" parent="1" source="Xdz14TQxOLBDT99SR0KR-8" target="Xdz14TQxOLBDT99SR0KR-13" edge="1">
          <mxGeometry relative="1" as="geometry" />
        </mxCell>
        <mxCell id="Xdz14TQxOLBDT99SR0KR-18" style="edgeStyle=orthogonalEdgeStyle;rounded=0;orthogonalLoop=1;jettySize=auto;html=1;fontFamily=Helvetica;fontSize=12;fontColor=default;" parent="1" source="Xdz14TQxOLBDT99SR0KR-8" target="Xdz14TQxOLBDT99SR0KR-12" edge="1">
          <mxGeometry relative="1" as="geometry" />
        </mxCell>
        <mxCell id="Xdz14TQxOLBDT99SR0KR-19" style="edgeStyle=orthogonalEdgeStyle;rounded=0;orthogonalLoop=1;jettySize=auto;html=1;entryX=0;entryY=0.5;entryDx=0;entryDy=0;fontFamily=Helvetica;fontSize=12;fontColor=default;" parent="1" source="Xdz14TQxOLBDT99SR0KR-8" target="Xdz14TQxOLBDT99SR0KR-14" edge="1">
          <mxGeometry relative="1" as="geometry" />
        </mxCell>
        <mxCell id="Xdz14TQxOLBDT99SR0KR-8" value="&lt;font style=&quot;font-size: 15px;&quot;&gt;CRM&lt;/font&gt;" style="image;aspect=fixed;html=1;points=[];align=center;fontSize=12;image=img/lib/azure2/general/Folder_Blank.svg;" parent="1" vertex="1">
          <mxGeometry x="-525" y="280" width="69" height="64" as="geometry" />
        </mxCell>
        <mxCell id="Xdz14TQxOLBDT99SR0KR-28" style="edgeStyle=orthogonalEdgeStyle;rounded=0;orthogonalLoop=1;jettySize=auto;html=1;entryX=0;entryY=0.5;entryDx=0;entryDy=0;fontFamily=Helvetica;fontSize=12;fontColor=default;" parent="1" source="Xdz14TQxOLBDT99SR0KR-9" target="Xdz14TQxOLBDT99SR0KR-26" edge="1">
          <mxGeometry relative="1" as="geometry" />
        </mxCell>
        <mxCell id="Xdz14TQxOLBDT99SR0KR-29" style="edgeStyle=orthogonalEdgeStyle;rounded=0;orthogonalLoop=1;jettySize=auto;html=1;fontFamily=Helvetica;fontSize=12;fontColor=default;" parent="1" source="Xdz14TQxOLBDT99SR0KR-9" target="Xdz14TQxOLBDT99SR0KR-25" edge="1">
          <mxGeometry relative="1" as="geometry" />
        </mxCell>
        <mxCell id="Xdz14TQxOLBDT99SR0KR-30" style="edgeStyle=orthogonalEdgeStyle;rounded=0;orthogonalLoop=1;jettySize=auto;html=1;entryX=0;entryY=0.5;entryDx=0;entryDy=0;fontFamily=Helvetica;fontSize=12;fontColor=default;" parent="1" source="Xdz14TQxOLBDT99SR0KR-9" target="Xdz14TQxOLBDT99SR0KR-27" edge="1">
          <mxGeometry relative="1" as="geometry" />
        </mxCell>
        <mxCell id="Xdz14TQxOLBDT99SR0KR-9" value="&lt;font style=&quot;font-size: 15px;&quot;&gt;ERP&lt;/font&gt;" style="image;aspect=fixed;html=1;points=[];align=center;fontSize=12;image=img/lib/azure2/general/Folder_Blank.svg;" parent="1" vertex="1">
          <mxGeometry x="-525" y="490" width="69" height="64" as="geometry" />
        </mxCell>
        <mxCell id="Xdz14TQxOLBDT99SR0KR-10" value="" style="rounded=0;whiteSpace=wrap;html=1;dashed=1;fillColor=none;fontColor=#ffffff;strokeColor=#E1D5E7;" parent="1" vertex="1">
          <mxGeometry x="-340" y="190" width="230" height="480" as="geometry" />
        </mxCell>
        <mxCell id="Xdz14TQxOLBDT99SR0KR-11" value="&lt;font style=&quot;font-size: 15px;&quot;&gt;&lt;b&gt;Bronze Layer&lt;/b&gt;&lt;/font&gt;" style="rounded=0;whiteSpace=wrap;html=1;fillColor=#f8cecc;strokeColor=#b85450;opacity=50;gradientColor=#ea6b66;" parent="1" vertex="1">
          <mxGeometry x="-270" y="170" width="110" height="45" as="geometry" />
        </mxCell>
        <mxCell id="NDT3R4Ue2ZUsVmPJXPDj-13" style="edgeStyle=orthogonalEdgeStyle;rounded=0;orthogonalLoop=1;jettySize=auto;html=1;entryX=0;entryY=0.5;entryDx=0;entryDy=0;" parent="1" source="Xdz14TQxOLBDT99SR0KR-12" target="NDT3R4Ue2ZUsVmPJXPDj-4" edge="1">
          <mxGeometry relative="1" as="geometry" />
        </mxCell>
        <mxCell id="Xdz14TQxOLBDT99SR0KR-12" value="&lt;font style=&quot;font-size: 17px;&quot;&gt;&lt;b&gt;crm_sales_details&lt;/b&gt;&lt;/font&gt;" style="rounded=0;whiteSpace=wrap;html=1;fillStyle=auto;fillColor=#ffcd28;gradientColor=#ffa500;strokeColor=#d79b00;opacity=50;" parent="1" vertex="1">
          <mxGeometry x="-325" y="260" width="205" height="30" as="geometry" />
        </mxCell>
        <mxCell id="NDT3R4Ue2ZUsVmPJXPDj-12" style="edgeStyle=orthogonalEdgeStyle;rounded=0;orthogonalLoop=1;jettySize=auto;html=1;entryX=0;entryY=0.5;entryDx=0;entryDy=0;" parent="1" source="Xdz14TQxOLBDT99SR0KR-13" target="NDT3R4Ue2ZUsVmPJXPDj-5" edge="1">
          <mxGeometry relative="1" as="geometry" />
        </mxCell>
        <mxCell id="Xdz14TQxOLBDT99SR0KR-13" value="&lt;font style=&quot;font-size: 17px;&quot;&gt;&lt;b&gt;crm_customer_info&lt;/b&gt;&lt;/font&gt;" style="rounded=0;whiteSpace=wrap;html=1;fillStyle=auto;fillColor=#ffcd28;gradientColor=#ffa500;strokeColor=#d79b00;opacity=50;" parent="1" vertex="1">
          <mxGeometry x="-325" y="296" width="205" height="30" as="geometry" />
        </mxCell>
        <mxCell id="NDT3R4Ue2ZUsVmPJXPDj-15" style="edgeStyle=orthogonalEdgeStyle;rounded=0;orthogonalLoop=1;jettySize=auto;html=1;entryX=0;entryY=0.5;entryDx=0;entryDy=0;" parent="1" source="Xdz14TQxOLBDT99SR0KR-14" target="NDT3R4Ue2ZUsVmPJXPDj-6" edge="1">
          <mxGeometry relative="1" as="geometry" />
        </mxCell>
        <mxCell id="Xdz14TQxOLBDT99SR0KR-14" value="&lt;span style=&quot;font-size: 17px;&quot;&gt;&lt;b&gt;crm_product_info&lt;/b&gt;&lt;/span&gt;" style="rounded=0;whiteSpace=wrap;html=1;fillStyle=auto;fillColor=#ffcd28;gradientColor=#ffa500;strokeColor=#d79b00;opacity=50;" parent="1" vertex="1">
          <mxGeometry x="-325" y="330" width="205" height="30" as="geometry" />
        </mxCell>
        <mxCell id="Xdz14TQxOLBDT99SR0KR-24" style="edgeStyle=orthogonalEdgeStyle;rounded=0;orthogonalLoop=1;jettySize=auto;html=1;fontFamily=Helvetica;fontSize=12;fontColor=default;" parent="1" source="Xdz14TQxOLBDT99SR0KR-25" target="Xdz14TQxOLBDT99SR0KR-26" edge="1">
          <mxGeometry relative="1" as="geometry" />
        </mxCell>
        <mxCell id="NDT3R4Ue2ZUsVmPJXPDj-16" style="edgeStyle=orthogonalEdgeStyle;rounded=0;orthogonalLoop=1;jettySize=auto;html=1;" parent="1" source="Xdz14TQxOLBDT99SR0KR-25" target="NDT3R4Ue2ZUsVmPJXPDj-8" edge="1">
          <mxGeometry relative="1" as="geometry" />
        </mxCell>
        <mxCell id="Xdz14TQxOLBDT99SR0KR-25" value="&lt;font style=&quot;font-size: 17px;&quot;&gt;&lt;b&gt;erp_cust_az12&lt;/b&gt;&lt;/font&gt;" style="rounded=0;whiteSpace=wrap;html=1;fillStyle=auto;fillColor=#ffcd28;gradientColor=#ffa500;strokeColor=#d79b00;opacity=50;" parent="1" vertex="1">
          <mxGeometry x="-325" y="470" width="205" height="30" as="geometry" />
        </mxCell>
        <mxCell id="NDT3R4Ue2ZUsVmPJXPDj-17" style="edgeStyle=orthogonalEdgeStyle;rounded=0;orthogonalLoop=1;jettySize=auto;html=1;" parent="1" source="Xdz14TQxOLBDT99SR0KR-26" target="NDT3R4Ue2ZUsVmPJXPDj-9" edge="1">
          <mxGeometry relative="1" as="geometry" />
        </mxCell>
        <mxCell id="Xdz14TQxOLBDT99SR0KR-26" value="&lt;font style=&quot;font-size: 17px;&quot;&gt;&lt;b&gt;erp_loc_a101&lt;/b&gt;&lt;/font&gt;" style="rounded=0;whiteSpace=wrap;html=1;fillStyle=auto;fillColor=#ffcd28;gradientColor=#ffa500;strokeColor=#d79b00;opacity=50;" parent="1" vertex="1">
          <mxGeometry x="-325" y="506" width="205" height="30" as="geometry" />
        </mxCell>
        <mxCell id="NDT3R4Ue2ZUsVmPJXPDj-18" style="edgeStyle=orthogonalEdgeStyle;rounded=0;orthogonalLoop=1;jettySize=auto;html=1;entryX=0;entryY=0.5;entryDx=0;entryDy=0;" parent="1" source="Xdz14TQxOLBDT99SR0KR-27" target="NDT3R4Ue2ZUsVmPJXPDj-10" edge="1">
          <mxGeometry relative="1" as="geometry" />
        </mxCell>
        <mxCell id="Xdz14TQxOLBDT99SR0KR-27" value="&lt;span style=&quot;font-size: 17px;&quot;&gt;&lt;b&gt;erp_px_catg1v2&lt;/b&gt;&lt;/span&gt;" style="rounded=0;whiteSpace=wrap;html=1;fillStyle=auto;fillColor=#ffcd28;gradientColor=#ffa500;strokeColor=#d79b00;opacity=50;" parent="1" vertex="1">
          <mxGeometry x="-325" y="540" width="205" height="30" as="geometry" />
        </mxCell>
        <mxCell id="WLhkxDk-jvtt-Msqtq3V-1" style="edgeStyle=orthogonalEdgeStyle;rounded=0;orthogonalLoop=1;jettySize=auto;html=1;fontFamily=Helvetica;fontSize=12;fontColor=default;fillColor=#6a00ff;strokeColor=#3700CC;" edge="1" parent="1" source="WLhkxDk-jvtt-Msqtq3V-4" target="WLhkxDk-jvtt-Msqtq3V-5">
          <mxGeometry relative="1" as="geometry" />
        </mxCell>
        <mxCell id="WLhkxDk-jvtt-Msqtq3V-2" value="" style="rounded=0;whiteSpace=wrap;html=1;dashed=1;fillColor=none;strokeColor=#3700CC;fontColor=#ffffff;" vertex="1" parent="1">
          <mxGeometry x="280" y="190" width="230" height="480" as="geometry" />
        </mxCell>
        <mxCell id="WLhkxDk-jvtt-Msqtq3V-3" value="&lt;font style=&quot;font-size: 15px;&quot;&gt;&lt;b&gt;Gold Layer&lt;/b&gt;&lt;/font&gt;" style="rounded=0;whiteSpace=wrap;html=1;opacity=50;fillColor=#6a00ff;strokeColor=#3700CC;fontColor=#ffffff;" vertex="1" parent="1">
          <mxGeometry x="350" y="170" width="110" height="45" as="geometry" />
        </mxCell>
        <mxCell id="WLhkxDk-jvtt-Msqtq3V-4" value="&lt;span style=&quot;font-size: 17px;&quot;&gt;&lt;b&gt;fact_sales&lt;/b&gt;&lt;/span&gt;" style="rounded=0;whiteSpace=wrap;html=1;fillStyle=auto;opacity=50;fillColor=#6a00ff;strokeColor=#3700CC;fontColor=#ffffff;" vertex="1" parent="1">
          <mxGeometry x="302.5" y="280" width="205" height="40" as="geometry" />
        </mxCell>
        <mxCell id="WLhkxDk-jvtt-Msqtq3V-5" value="&lt;span style=&quot;font-size: 17px;&quot;&gt;&lt;b&gt;dim_customers&lt;/b&gt;&lt;/span&gt;" style="rounded=0;whiteSpace=wrap;html=1;fillStyle=auto;opacity=50;fillColor=#6a00ff;strokeColor=#3700CC;fontColor=#ffffff;" vertex="1" parent="1">
          <mxGeometry x="302.5" y="396" width="205" height="40" as="geometry" />
        </mxCell>
        <mxCell id="WLhkxDk-jvtt-Msqtq3V-6" value="&lt;span style=&quot;font-size: 17px;&quot;&gt;&lt;b&gt;dim_product&lt;/b&gt;&lt;/span&gt;" style="rounded=0;whiteSpace=wrap;html=1;fillStyle=auto;opacity=50;fillColor=#6a00ff;strokeColor=#3700CC;fontColor=#ffffff;" vertex="1" parent="1">
          <mxGeometry x="302.5" y="500" width="205" height="40" as="geometry" />
        </mxCell>
        <mxCell id="WLhkxDk-jvtt-Msqtq3V-12" value="" style="endArrow=classic;html=1;rounded=0;exitX=1;exitY=0.5;exitDx=0;exitDy=0;entryX=0;entryY=0.5;entryDx=0;entryDy=0;" edge="1" parent="1" source="NDT3R4Ue2ZUsVmPJXPDj-4" target="WLhkxDk-jvtt-Msqtq3V-4">
          <mxGeometry width="50" height="50" relative="1" as="geometry">
            <mxPoint x="150" y="290" as="sourcePoint" />
            <mxPoint x="200" y="240" as="targetPoint" />
          </mxGeometry>
        </mxCell>
        <mxCell id="WLhkxDk-jvtt-Msqtq3V-13" value="" style="endArrow=classic;html=1;rounded=0;entryX=0;entryY=0.5;entryDx=0;entryDy=0;exitX=1;exitY=0.5;exitDx=0;exitDy=0;jumpStyle=gap;" edge="1" parent="1" source="NDT3R4Ue2ZUsVmPJXPDj-5" target="WLhkxDk-jvtt-Msqtq3V-5">
          <mxGeometry width="50" height="50" relative="1" as="geometry">
            <mxPoint x="190" y="320" as="sourcePoint" />
            <mxPoint x="232.5" y="344" as="targetPoint" />
          </mxGeometry>
        </mxCell>
        <mxCell id="WLhkxDk-jvtt-Msqtq3V-14" value="" style="endArrow=classic;html=1;rounded=0;entryX=0;entryY=0.5;entryDx=0;entryDy=0;exitX=1;exitY=0.5;exitDx=0;exitDy=0;jumpStyle=gap;" edge="1" parent="1" target="WLhkxDk-jvtt-Msqtq3V-5">
          <mxGeometry width="50" height="50" relative="1" as="geometry">
            <mxPoint x="159.5" y="520" as="sourcePoint" />
            <mxPoint x="232.5" y="625" as="targetPoint" />
          </mxGeometry>
        </mxCell>
        <mxCell id="WLhkxDk-jvtt-Msqtq3V-15" value="" style="endArrow=classic;html=1;rounded=0;entryX=0;entryY=0.5;entryDx=0;entryDy=0;exitX=1;exitY=0.5;exitDx=0;exitDy=0;jumpStyle=gap;" edge="1" parent="1" source="NDT3R4Ue2ZUsVmPJXPDj-8" target="WLhkxDk-jvtt-Msqtq3V-5">
          <mxGeometry width="50" height="50" relative="1" as="geometry">
            <mxPoint x="159" y="500" as="sourcePoint" />
            <mxPoint x="232.5" y="396" as="targetPoint" />
          </mxGeometry>
        </mxCell>
        <mxCell id="WLhkxDk-jvtt-Msqtq3V-16" value="" style="endArrow=classic;html=1;rounded=0;entryX=0;entryY=0.5;entryDx=0;entryDy=0;exitX=1;exitY=0.5;exitDx=0;exitDy=0;jumpStyle=gap;" edge="1" parent="1" target="WLhkxDk-jvtt-Msqtq3V-6">
          <mxGeometry width="50" height="50" relative="1" as="geometry">
            <mxPoint x="170" y="344" as="sourcePoint" />
            <mxPoint x="313" y="449" as="targetPoint" />
          </mxGeometry>
        </mxCell>
        <mxCell id="WLhkxDk-jvtt-Msqtq3V-17" value="" style="endArrow=classic;html=1;rounded=0;entryX=0;entryY=0.5;entryDx=0;entryDy=0;exitX=1;exitY=0.5;exitDx=0;exitDy=0;jumpStyle=gap;" edge="1" parent="1" source="NDT3R4Ue2ZUsVmPJXPDj-10" target="WLhkxDk-jvtt-Msqtq3V-6">
          <mxGeometry width="50" height="50" relative="1" as="geometry">
            <mxPoint x="159" y="564" as="sourcePoint" />
            <mxPoint x="302.5" y="460" as="targetPoint" />
          </mxGeometry>
        </mxCell>
      </root>
    </mxGraphModel>
  </diagram>
</mxfile>
